<?xml version="1.0" encoding="UTF-8"?>
<!DOCTYPE svg PUBLIC "-//W3C//DTD SVG 1.1//EN" "http://www.w3.org/Graphics/SVG/1.1/DTD/svg11.dtd">
<!-- Creator: CorelDRAW -->
<svg xmlns="http://www.w3.org/2000/svg" xml:space="preserve" width="5.94668in" height="3.27298in" version="1.1" style="shape-rendering:geometricPrecision; text-rendering:geometricPrecision; image-rendering:optimizeQuality; fill-rule:evenodd; clip-rule:evenodd"
viewBox="0 0 2113.9 1163.46"
 xmlns:xlink="http://www.w3.org/1999/xlink"
 xmlns:xodm="http://www.corel.com/coreldraw/odm/2003">
 <defs>
  <style type="text/css">
   <![CDATA[
    .fil4 {fill:black}
    .fil3 {fill:#000065}
    .fil0 {fill:#08AF08}
    .fil2 {fill:#C1181B}
    .fil1 {fill:#FEEF00}
   ]]>
  </style>
 </defs>
 <g id="Layer_x0020_1">
  <metadata id="CorelCorpID_0Corel-Layer"/>
  <g id="_1928827954464">
   <path class="fil0" d="M1044.67 345.9c6.59,-24.46 58.73,-98.33 79.24,-120.24l13.58 -14.84 1.22 -1.19c3.27,-4.88 7.84,-8.43 12.14,-12.74l13.03 -11.86c2.28,-2 3.73,-3.78 5.91,-5.94l20.54 -17.38c9.81,-7.66 17.86,-14.36 28.24,-21.52 15.73,-10.85 44.18,-29.41 62.32,-38.4 11.23,-5.57 22.83,-11.62 34.54,-16.42 65.11,-26.69 93.93,-33.46 159.45,-41.99 21.18,-2.76 50.12,-3.52 71.49,-3.25 6.11,0.08 6.53,0.96 11.8,1.24 4.28,0.23 8.61,-0.31 12.87,0.17 74.22,8.26 132.13,20.65 198.07,53.13 5.85,2.88 10.42,5.46 16.19,8.69 64.41,36.05 85.06,52.05 142.87,109.52 24.64,24.5 60.18,75.09 74.76,101.79 6,10.99 12,20.95 17.03,32.74 19.07,44.71 25.45,53 39.44,112.23 3.18,13.44 5.91,27.84 7.94,41.83 2.09,14.45 4.31,31.13 5.1,45.85 3.99,74.32 -6,148.75 -30.66,217 -2.23,6.17 -4.43,11.74 -6.92,17.96 -12.45,31.06 -25.66,56.19 -42.48,84.3 -13.83,23.11 -30.4,44.73 -47.56,65.01 -11.94,14.11 -38.07,42.06 -49.29,51.43l-13.51 11.37c-2.97,2.51 -3.58,3.47 -6.95,6.09 -23.91,18.59 -47.61,36.58 -74.39,51.21l-33.16 17.79c-98.85,45.8 -207.6,65.02 -317.84,47.27 -15.27,-2.46 -27.8,-4.53 -41.76,-8 -28.93,-7.19 -49.64,-13.38 -76.57,-24.15 -35.21,-14.08 -68.5,-31.41 -99.5,-52.17l-42.87 -31.78c-3.94,-3.11 -10.92,-8.64 -13.53,-12.53 -3.38,-0.81 -1.78,0.18 -3.55,-2.37l-1.19 -1.3c-7.55,-4.67 -31.06,-28.97 -39.14,-37.72 -17.81,-19.28 -62.11,-76.26 -69.38,-96.07l-45.53 0c1.26,5.42 7.47,15.44 10.44,20.37 30.37,50.53 51.94,80.51 95.91,124.48l32.64 30.16c45.27,38.35 101.94,73.01 157.24,95.15 107.39,42.99 210.32,52.39 325.7,33.02 18.13,-3.04 34.45,-7.85 51.81,-12.17 16.1,-4.01 31.75,-9.68 47.2,-15.61 29.51,-11.32 38.46,-15.93 64.68,-28.93 21.56,-10.69 57.55,-33.96 77.01,-48.59 3.05,-2.29 5.48,-4.14 8.66,-6.74l58.58 -51.62c13.67,-13.66 32.29,-35.52 44.64,-51.34 9.75,-12.48 17.36,-23.15 26.28,-36.52 8.35,-12.52 16.6,-25.55 23.78,-39.02 3.9,-7.31 6.9,-12.62 10.66,-20.15 16.98,-33.96 24.57,-54.81 36.4,-90.38l12.88 -49.92 11.59 -83.21c0.06,-7.4 0.65,-16.01 1.14,-24.89l0 -33.5c-0.14,-1.34 -0.31,-2.66 -0.5,-3.95 -1.85,-12.23 -2.24,-35.26 -5.36,-57.44 -2.7,-19.26 -5.95,-34.84 -10.02,-52.78 -9.65,-42.55 -30.65,-100.24 -51.29,-137.12 -15.32,-27.37 -41.75,-71.08 -62.87,-94.72 -17.4,-19.47 -22.99,-27.58 -45.03,-49.76 -74.75,-75.18 -183.62,-131.96 -288.32,-153.66 -121.8,-25.24 -259.55,-10.09 -370.4,45.34 -7.58,3.79 -13.74,6.9 -21.33,10.66 -7.61,3.77 -13.53,7.67 -20.54,11.46l-38.25 24.55c-22.48,16.88 -28.72,20.96 -52.64,40.97l-40.35 39.04c-3.16,3.41 -4.11,5.41 -7.68,8.91 -26.45,25.85 -73.69,97.1 -89.39,131.01l-9.85 22.14 44.6 0z"/>
   <path class="fil1" d="M1138.71 209.63l-1.22 1.19 -13.58 14.84c-20.51,21.91 -72.65,95.78 -79.24,120.24l10.75 0c2.79,-6.58 13.41,-19.95 17.62,-25.39 6.67,-8.62 13.38,-15.87 19.3,-23.19l1.34 -1.19 1.18 -1.19c3,-4.48 8.94,-9.03 13.7,-14.73l15.62 -15.19c3.95,-4 6.71,-5.71 10.67,-9.47l22.29 -18c8.06,-6.11 15.26,-10.87 23.74,-16.54 8.39,-5.62 15.82,-9.52 24.4,-14.7 4.51,-2.72 8.58,-4.39 13.04,-7.11 4.87,-2.97 7.74,-4.28 13.49,-6.65 5.18,-2.14 8.48,-3.98 13.86,-6.28 34.67,-14.82 70.34,-25.78 108.74,-31.07 38.61,-5.33 71.81,-6.39 112.31,-2.23 11.23,1.15 23.59,3.1 35.07,5.22 50.64,9.36 65.23,18.55 105.12,34.7 5.55,2.25 8.38,3.79 13.37,6.78 35.83,21.45 35.6,18.57 72.29,47.38 4.14,3.25 7.36,5.59 11.04,9.1 17.84,16.99 33.23,30.19 49.9,50.82 54.67,67.69 84.79,132.24 97.86,222.07 7.11,48.81 3.36,102.37 -5.37,146.18 -13.05,65.5 -37.21,113.51 -73.13,166.22l-26.65 33.78c-6.97,8.32 -31.07,32.67 -39.94,39.45 -22.99,17.6 -27.71,23.88 -57.83,42.89 -8.2,5.17 -16.09,9.53 -24.73,14.37 -9.23,5.16 -17.4,8.45 -27.24,13.05 -39.25,18.34 -81.01,28.54 -125.3,34.66 -66.28,9.17 -146.86,-0.92 -208.91,-25.91l-41.8 -18.63c-12.96,-6.44 -26.11,-14.95 -38.29,-22.14 -4.62,-2.72 -21.03,-13.84 -23.32,-16.97l-2.37 -1.19 -1.19 -1.2c-16.76,-10.02 -51.48,-44.21 -64.67,-59.78 -6.04,-7.12 -13.89,-14.93 -18.47,-23.14l-9.97 0c7.27,19.81 51.57,76.79 69.38,96.07 8.08,8.75 31.59,33.05 39.14,37.72l1.19 1.3c3.38,0.81 1.78,-0.18 3.55,2.37 4.27,0.99 8.43,4.29 12.35,6.61 70.4,41.77 154.76,60.5 240.05,60.93 19.77,0.1 52.83,-3.9 72.28,-7.11 21.86,-3.61 44.74,-9.55 64.43,-16.15 10.48,-3.52 18.69,-6.44 28.67,-10.43 10.32,-4.13 18.13,-7.93 28.1,-12.19 4.65,-1.98 9.01,-4.24 13.49,-6.66 25.93,-13.96 36.72,-21.33 61.3,-38.24l33.54 -26.89c10.47,-8.76 30.44,-29.09 39.74,-39.65 12.55,-14.25 24.25,-29.79 35.26,-45.31 2.83,-3.99 5.66,-7.6 8.23,-11.91 17.71,-29.68 27.65,-45.83 40.85,-78.83 17.34,-43.36 26.19,-79.86 31.7,-128.27 6.6,-58.02 0.28,-123.66 -16.38,-179.56 -4.98,-16.72 -13.95,-42.61 -21.36,-58.03 -4.68,-9.75 -8.19,-17.75 -13.02,-27.27 -1.45,-2.86 -1.95,-3.47 -3.47,-6.01 -1.64,-2.74 -2.16,-4.24 -3.68,-6.99 -7.71,-13.96 -21.67,-35.12 -31.36,-48.03 -3.05,-4.07 -5.37,-7.35 -8.62,-11.52l-37.74 -42.83c-20.92,-17.68 -28.31,-26.46 -53.83,-45.7 -17.09,-12.88 -43.21,-28.79 -62.36,-38.36 -20.29,-10.14 -47.19,-22.87 -70.2,-29.34l-47.66 -12.77c-22.81,-5.38 -87.82,-13 -108.93,-10.1 -11.14,1.53 -25.39,1 -37.57,2.72 -86.26,12.14 -131.05,27.45 -206.35,73.29 -4.45,2.71 -20.21,15.03 -24.2,16.09z"/>
   <path class="fil2" d="M1094.87 294.95l-1.18 1.19 -1.34 1.19c-5.92,7.33 -12.63,14.57 -19.3,23.19 -4.21,5.43 -14.82,18.81 -17.62,25.39 5.67,0 11.36,0.08 17.02,0.08 10.88,0 6.32,-1.81 20.24,-12.94 3.44,-2.75 4.86,-4.71 8.8,-7.79 6.36,-4.97 12,-10.4 18.27,-14.9 101.83,-73.03 228.65,-90.77 344.31,-44.52 33.72,13.49 57.56,28.4 85.66,49.42 39.27,29.38 68.4,67.69 93.27,109.35 8.37,14.03 14.7,30.39 21.15,46.39 11.06,27.42 22.09,75.32 22,113.08 -0.09,37.44 -1.4,57.01 -8.58,90.95 -11.83,55.89 -38.3,102.36 -72.66,146.55 -3.19,4.1 -4.94,5.52 -8.13,9.65l-24.66 25.11c-3.5,3.46 -5.88,4.68 -9.5,8.28 -5.95,5.92 -30.96,24.19 -38.58,28.96l-20.77 12.41c-7.86,4.22 -14.89,7.42 -22.91,11.46 -14.85,7.48 -32.45,13.52 -49.12,18.42 -84.7,24.87 -176.77,16.21 -253.85,-20.78l-22.34 -12.02c-7.33,-4.43 -13.23,-8.03 -20.38,-12.8l-29.32 -21.64c-20.37,-16.59 -12.45,-17.94 -33.2,-17.94 4.58,8.21 12.44,16.02 18.47,23.14 13.19,15.57 47.9,49.77 64.67,59.78l1.19 1.2 2.37 1.19c7.1,1.65 41.26,22.19 95.09,32.88 32.43,6.44 81.4,11.11 120.08,5.73 41.1,-5.71 64.96,-11.37 101.88,-26.09 63.41,-25.28 113.24,-65.55 155.46,-117.07 2.73,-3.34 4.66,-5.99 7.21,-9.37 56.35,-74.63 83.88,-175.46 71.48,-276.14 -4.58,-37.19 -20.75,-91.88 -37.33,-122.64 -10.82,-20.08 -23.44,-41.69 -37.71,-59.46 -22.36,-27.84 -20.92,-25.3 -45.74,-50.24l-17.21 -14.79c-21.36,-19.13 -54.08,-36.88 -79.48,-49.68 -13.99,-7.05 -30.6,-13.15 -45.96,-18.03 -84.57,-26.86 -190.73,-22.84 -270.81,15.66 -20.67,9.94 -21.52,9.91 -41.94,22.05l-29.05 19.53c-3.04,2.29 -6.54,5.68 -9.99,6.6z"/>
   <path class="fil3" d="M476.34 386.19c8.53,0 16.72,2.07 22.28,7.35 3.54,3.36 8.24,10.66 10.53,15.54 4.58,9.77 3.55,9.01 1.91,20.12 -1.27,8.57 -1.97,15.39 -3.24,24.02 -4.24,28.77 -32.22,241.4 -37.5,255.17 -2.87,7.48 -8.61,8.39 -18.86,8.39l0 3.55 52.14 0 0 -3.55c-23.37,0 -14.51,-23.33 -11.64,-47.18 1.24,-10.3 3.36,-21.42 4.53,-32.21l8.79 -64.67c1.94,-13.8 17.27,-118.68 17.27,-129.66 2.62,1.92 2.88,4.07 4.35,7.5l101.89 234.63c2.79,6.28 4.93,11.35 7.55,17.34 2.33,5.33 5.68,11.8 7.08,17.81 5.45,-0.45 4.48,-1.11 10.16,-14.72l22.68 -53.15c5.16,-12.04 9.91,-22.43 15.05,-34.71l75.06 -173.77c0.86,-1.55 0.65,-1.19 1.45,-2.1 0,17.78 30.24,212.62 34.17,250.22 1.48,14.12 2.17,24.69 -14.03,24.69l0 3.55 75.84 0 0 -3.55c-17.89,-1.49 -19.6,-9.79 -23.03,-29.1l-6.39 -45.75c-4.41,-31.11 -8.15,-60.37 -12.55,-91.72 -0.76,-5.39 -18.93,-130.31 -18.46,-137.86 1.02,-16.37 9.78,-26.16 27.25,-26.16l0 -4.74 -53.32 0c-1.06,4.56 -5.15,12.43 -6.94,16.76 -25.61,62.04 -56.23,127.73 -81.76,189.59l-29.79 69.74 -59.28 -137.42c-9.98,-22.76 -19.58,-46.03 -29.56,-68.79l-29.66 -69.88 -63.99 0 0 4.74z"/>
   <path class="fil3" d="M-0 386.19c24.34,0 23.7,11.72 23.7,46.21l0 253.57c0,20.49 -2.71,30.81 -23.7,30.81l0 3.55 87.68 0 0 -3.55c-18,0 -24.88,-5.67 -24.88,-23.7l0 -141.01 184.85 0c0,21.83 1.95,139.3 -2.55,153.86 -2.83,9.18 -10.68,10.84 -21.15,10.84l0 3.55 86.5 0 0 -3.55c-17.96,0 -23.7,-7.13 -23.7,-24.88l0 -280.83c0,-19.63 3.79,-24.88 23.7,-24.88 -0.28,-3.34 0.03,-4.74 -3.55,-4.74l-82.94 0 0 4.74c20.47,0 23.7,5.36 23.7,36.73l0 118.49 -184.85 0 0 -135.08c0,-25.42 19.49,-15.15 24.88,-22.51 -1.39,-2 -0.17,-2.37 -3.55,-2.37l-84.13 0 0 4.74z"/>
   <path class="fil3" d="M1288.01 386.19c20.77,0 23.7,9.98 23.7,35.55l0 267.79c0,19.62 -3.71,27.25 -23.7,27.25l0 3.55 87.68 0 0 -3.55c-17.99,0 -24.88,-6.9 -24.88,-24.88l0 -139.82 107.83 0c11.54,0 14.36,2.3 16.59,11.85l3.55 0 0 -33.18 -3.55 0c-2.4,10.29 -7.19,11.85 -22.51,11.85l-101.9 0 0 -148.12 114.94 0c19.55,0 30.36,8.8 31.99,28.44l3.55 0 0 -41.47 -213.29 0 0 4.74z"/>
   <path class="fil3" d="M885.14 412.25c-0.75,-9.06 -2.44,-6.11 0,-16.59 15.68,-3.65 84.17,-2.37 103.09,-2.37l0 296.23c0,8 -0.83,16.93 -4.93,21.13 -4,4.1 -13.35,6.12 -21.13,6.12l0 3.55 92.42 0 0 -3.55c-22.79,0 -27.25,-4.85 -27.25,-34.36l0 -289.12c20.62,0 84.82,-1.61 101.9,2.37 1.4,5.99 1.18,9.16 1.18,16.59l3.55 0c2.28,-9.79 12.8,-30.3 15.4,-41.47 -7.2,0.6 -3.14,2.24 -7.44,6.78 -2.24,2.37 -7.16,3.89 -11.52,3.89l-246.46 0c-15.42,0 -8.18,-9.87 -17.77,-10.66l13.93 38.21c2.15,4.07 -0.02,2.84 5.03,3.26z"/>
   <path class="fil3" d="M344.81 386.19c17.86,0 24.88,1.36 24.88,30.81l0 271.35c0,22.88 -4.66,28.44 -24.88,28.44l0 3.55 90.05 0 0 -3.55c-25.31,0 -26.07,-9.25 -26.07,-36.73l0 -259.5c0,-26.99 0.09,-34.36 26.07,-34.36 -0.28,-3.34 0.03,-4.74 -3.55,-4.74l-86.5 0 0 4.74z"/>
   <path class="fil3" d="M1164.78 386.19c16.34,0 24.88,0.74 24.88,28.44l0 274.9c0,20.51 -4.09,27.25 -24.88,27.25l0 3.55 90.05 0 0 -3.55c-26.4,0 -26.07,-10.38 -26.07,-41.47 0,-29.31 -1.89,-268.91 2.12,-279.89 2.91,-7.97 13.17,-9.23 23.95,-9.23 -0.28,-3.34 0.03,-4.74 -3.55,-4.74l-86.5 0 0 4.74z"/>
   <path class="fil4" d="M904.09 753.51l5.92 2.37 0 49.77c0,6.42 -3.53,-0.01 -5.92,5.93l20.14 0c-2.2,-5.46 -4.77,0.04 -5.91,-7.13 -0.41,-2.6 -0.02,-9.92 -0.02,-13.02 2.69,1.8 6.13,6.69 8.32,9.46 3.64,4.61 4.56,4.87 3.89,7.66l-1.55 3.02 39.1 0c-2.39,-5.93 -5.92,0.49 -5.92,-5.93 0,-16.27 -3.29,-29.62 9.48,-29.62 8.28,0 5.92,17.7 5.92,27.25 0,3.47 -0.12,3.17 -2.03,5.08 -1.69,1.68 -0.32,0.01 -2.09,1.46 -2.6,2.14 -0.31,-1.94 -1.8,1.76l18.96 0c-1.83,-4.53 -4.58,-1.46 -5.72,-8.5 -1.14,-6.96 1.13,-21.75 -1.26,-27.18 -6.1,-13.84 -21.2,1.14 -21.45,1.31l0 -7.11c-3.67,0.31 -5.71,1.23 -8.39,2.28 -4.92,1.92 -4.6,0.22 -5.83,4.83l5.92 0 0 28.44c0,4.36 -2.53,3.55 -8.29,3.55 -4.46,0 -17.46,-18.51 -20.14,-22.51 7.58,-5.08 10.19,-13.04 21.33,-13.04l-17.77 -2.37c1.54,4.25 1.74,0.15 2.37,5.92 -4.23,2.83 -8.12,7.37 -13.03,10.66 0,-54.87 1.94,-35.71 -14.22,-34.36z"/>
   <path class="fil4" d="M1226.39 777.21l5.92 0 0 28.44c0,6.42 -3.53,-0.01 -5.92,5.93l21.33 0c-6.47,-8.84 -7.11,8.36 -7.11,-26.07 0,-4.35 1.83,-5.73 3.55,-8.29 6.98,0.58 2.47,2.37 7.11,2.37 4.2,0 0.7,-2.37 9.48,-2.37 1.46,6.25 3.23,27.08 -0.85,31.14 -2.95,2.94 -2.48,-0.28 -3.89,3.22l20.14 0c-2.52,-3.44 0.17,-2.24 -5.93,-2.37 -0.12,-5.36 -1.18,-4.71 -1.18,-10.66 0,-10.93 -2.84,-22.51 10.66,-22.51 8.47,0 5.92,19.12 5.92,29.62 0,6.42 -3.53,-0.01 -5.92,5.93l20.14 0c-2.87,-3.91 -1.29,-1.33 -5.92,-3.55 0,-9.53 0.62,-19.49 -1.19,-27.25 0.65,-0.34 16.59,-12.26 16.59,3.55l0 21.33c0,6.42 -3.53,-0.01 -5.92,5.93l18.96 0c-1.26,-3.11 -1.48,-0.61 -3.55,-3.56 -0.91,-1.3 -0.57,-0.06 -1.12,-2.44l-0.24 -17.53c-2.97,-28.55 -16.27,-16.49 -24.72,-10.83 -8.44,-15.96 -20.06,-0.97 -23.7,0l0 -7.11 -11.85 4.74c-2.26,-1.66 -6.09,-10.21 -15,0.4l-1.58 -5.14c-3.67,0.31 -5.71,1.23 -8.39,2.28 -4.92,1.92 -4.6,0.22 -5.83,4.83z"/>
   <path class="fil4" d="M399.32 754.7c7.16,0.16 8.29,3.66 8.29,10.66 0,6.49 0.69,35.95 -1,40.48 -1.73,4.63 -1.21,3.37 -7.3,3.37l20.14 0c-4.82,0 -3.82,0.4 -7.11,-1.18l-1.19 -43.84c3.02,3.47 3.87,7 5.58,11.01 2.01,4.72 3.45,7.05 5.58,12.19 2.29,5.53 9.77,19.42 10.16,24.2l3.55 0 15.4 -35.55c1.13,-2.34 1.41,-3.04 2.51,-5.78l3.41 -6.07c0,14.07 1.62,31.8 -1.19,43.84 -3.29,1.58 -2.29,1.18 -7.11,1.18l24.88 0c-4.81,0 -3.82,0.4 -7.11,-1.18 -0.31,-3.71 -1.18,-4.21 -1.18,-8.29l0 -35.55c0,-4.09 0.88,-4.59 1.18,-8.29 3.29,-1.58 2.3,-1.18 7.11,-1.18l-16.59 -2.37c-2.08,3.94 -3.09,7.07 -5.13,11.46 -2.04,4.37 -3.19,6.73 -5.19,11.39 -1.75,4.07 -3.34,7.55 -5.1,11.49l-3.94 7.9c-1.42,2.37 -0.59,1.2 -1.96,2.78 -0.76,-3.26 -2.87,-7.45 -4.4,-11.01l-15.75 -34.02 -16.59 2.37z"/>
   <path class="fil4" d="M95.98 777.21l5.92 0c0,45.78 0.63,25.42 -5.92,34.36l20.14 0c-2.39,-5.93 -5.92,0.49 -5.92,-5.93 0,-20.6 -3.51,-32.57 14.22,-28.44 2.12,9.11 1.19,17.53 1.19,28.44 0,6.42 -3.53,-0.01 -5.93,5.93l20.14 0c-2.39,-5.93 -5.92,0.49 -5.92,-5.93 0,-19.78 -3.63,-32.6 14.22,-28.44 2.12,9.11 1.18,17.53 1.18,28.44 0,6.42 -3.53,-0.01 -5.92,5.93l20.14 0c-2.87,-3.91 -1.29,-1.33 -5.92,-3.55 0,-13.22 3,-37.92 -9.48,-37.92 -9.8,0 -9.74,4.5 -15.4,8.29 -4.28,-18.36 -22.44,-1.24 -22.51,-1.19l0 -7.11c-3.67,0.31 -5.71,1.23 -8.39,2.28 -4.92,1.92 -4.6,0.22 -5.83,4.83z"/>
   <path class="fil4" d="M9.48 754.7c4.82,0 3.82,-0.4 7.11,1.18 2.15,9.22 2.15,42.91 0,52.14 -3.29,1.58 -2.29,1.18 -7.11,1.18l24.88 0c-4.81,0 -3.82,0.4 -7.11,-1.18 -2.08,-8.91 -1.18,-14.25 -1.18,-24.88l26.07 0c0,42.28 -0.87,18.31 -8.29,28.44l26.07 -2.37c-4.78,0 -8.29,-0.08 -8.29,-4.74l0 -45.03c0,-4.66 3.51,-4.74 8.29,-4.74l-26.07 -2.37c2.35,3.2 3.64,2.47 8.29,3.55l0 23.7 -26.07 0c0,-10.54 -0.87,-14.87 1.18,-23.7 3.29,-1.58 2.3,-1.18 7.11,-1.18l-24.88 0z"/>
   <path class="fil4" d="M176.55 797.35c0,-10.62 -2.5,-20.14 10.66,-20.14 10.4,0 11.65,31.99 1.18,31.99 -7.26,0 -11.85,-0.23 -11.85,-11.85zm-14.22 -22.51c7.78,10.62 7.11,-17.83 7.11,47.4 0,9.23 -3.36,3.17 -7.11,8.29l21.33 0c-2.52,-3.44 0.17,-2.23 -5.93,-2.37 -0.5,-5.98 -1.18,-9.97 -1.18,-17.77 16.12,8.53 27.25,-6.74 27.25,-15.4 0,-9.7 -0.55,-24.88 -14.22,-24.88 -8.06,0 -9.24,5.52 -13.03,8.29l0 -8.29c-5.68,1.32 -8.54,3.42 -14.22,4.74z"/>
   <path class="fil4" d="M514.26 753.51l5.92 2.37 1.19 39.1c0,6.58 -1.19,7.03 -1.19,13.04 -4.63,2.22 -3.06,-0.36 -5.92,3.55l20.14 0c-2.36,-5.85 0.59,0.42 -3.26,-2.67 -1.77,-1.42 -2.67,2.09 -2.67,-3.26 0,-18.59 -3.7,-32.61 14.22,-28.44 2.12,9.11 1.19,17.53 1.19,28.44 0,6.42 -3.53,-0.01 -5.93,5.93l20.14 0c-2.87,-3.91 -1.29,-1.33 -5.93,-3.55 0,-14.13 3.07,-37.92 -10.66,-37.92 -6.4,0 -9.18,4.53 -13.03,7.11 0,-6.73 0.68,-17.69 0.06,-23.88 -0.92,-9.08 -4.32,-0.64 -14.28,0.18z"/>
   <path class="fil4" d="M708.58 812.76c3.48,-2.55 2.16,-2.79 6.33,-11.44 2.4,-4.99 2.78,-9.38 6.7,-12.26 2.06,8.86 6.34,15.29 8.29,23.7l3.55 0c0.28,-3.41 10.94,-33.04 14.07,-36.88 3.66,-4.5 1.99,0.17 3.71,-4.59l-13.04 0c1.4,3.75 -2.57,1.7 3.55,2.37 0,9.27 -5.13,16.39 -7.11,24.88l-2.37 0c-0.58,-6.98 -7.11,-15.46 -7.11,-21.33 0,-4.87 -0.01,-0.7 1.87,-2.87 3.47,-4.01 0.45,2.94 2.87,-3.05l-18.96 0c1.22,3.03 0.31,0.6 2.28,2.46 10.95,10.36 1.69,14.02 -1.09,25.97l-2.37 0c-0.79,-9.49 -9.1,-17.74 -6.43,-25.28 0.82,-2.31 0.05,1.37 1.69,-3.16l-16.59 0c1.91,5.29 -0.54,-0.09 3.37,3.74 0.98,0.96 0.6,0.23 1.74,1.82 0.62,0.88 1.13,2.16 1.56,3.18 1.78,4.3 2.61,7 4.18,11.23 1.25,3.36 2.67,7.2 4.21,11.19 1.63,4.21 2.16,8.18 5.09,10.32z"/>
   <path class="fil4" d="M1015.48 755.88l5.92 0 0 49.77c0,5.33 -0.9,1.84 -2.67,3.26 -3.85,3.07 -0.9,-3.17 -3.26,2.67l20.14 0c-2.2,-5.46 -4.77,0.04 -5.91,-7.13 -0.41,-2.6 -0.02,-9.92 -0.02,-13.02 3.64,2.44 5.66,6.06 8.31,9.47 6.72,8.68 4.17,5.66 2.36,10.67l18.96 -2.37c-5.16,-0.11 -4.63,-0.31 -7.51,-3.16l-15.01 -19.36c3.23,-2.16 5.31,-4.73 8.96,-7.63 4.78,-3.8 4.17,-5.4 12.37,-5.4l-17.77 -2.37c0.1,0.27 0.36,0.35 0.42,0.76 0.39,2.83 1.29,-0.85 1.95,5.16 -4.23,2.83 -8.12,7.37 -13.03,10.66 0,-9.9 -0.05,-19.8 0.06,-29.7 0.08,-7.36 1.35,-10.07 -4.38,-8.1 -3.99,1.37 -7.85,3 -9.9,5.8z"/>
   <path class="fil4" d="M1410.05 753.51l5.92 2.37 0 49.77c0,6.42 -3.53,-0.01 -5.92,5.93l20.14 0c-1.95,-4.82 -2.36,0.06 -5.06,-4.42 -1.15,-1.91 -0.41,0 -0.84,-2.71 -0.41,-2.6 -0.02,-9.92 -0.02,-13.02 2.69,1.8 6.13,6.69 8.32,9.46 0.89,1.13 3.14,3.76 3.6,4.8 0.74,1.69 1.25,0.8 -0.35,4.35l18.06 -0.84c-6.24,-0.14 -7.65,-2.56 -12.87,-9.64 -3.44,-4.66 -6.46,-8.12 -9.64,-12.87 7.58,-5.08 10.19,-13.04 21.33,-13.04l-16.94 -0.83c1.89,4.27 0.73,-2.95 1.54,4.39 -4.23,2.83 -8.12,7.37 -13.03,10.66 0,-9.48 -0.08,-19.01 0.04,-28.48 0.23,-18.12 -2.78,-6.84 -14.26,-5.88z"/>
   <path class="fil4" d="M332.96 774.84l5.92 2.37c0,45.78 0.63,25.42 -5.92,34.36l20.14 0c-2.39,-5.93 -5.92,0.49 -5.92,-5.93 0,-18.28 -3.41,-29.62 10.66,-29.62 6.75,0 4.74,23.23 4.74,29.62 0,5.33 -0.89,1.84 -2.67,3.26 -3.84,3.07 -0.9,-3.17 -3.26,2.67l20.14 0c-2.87,-3.91 -1.29,-1.33 -5.92,-3.55 0,-10.1 3.19,-37.92 -10.66,-37.92 -6.4,0 -9.18,4.53 -13.03,7.11l0 -7.11c-6.95,0.58 -8.55,3.42 -14.22,4.74z"/>
   <path class="fil4" d="M814.04 766.54l2.37 0c0.93,-11.22 6.79,-9.48 17.77,-9.48l0 47.4c0,4.65 -3.51,4.74 -8.29,4.74l24.88 0c-4.12,0 -7.11,0.72 -7.11,-3.55l0 -48.58c12.83,0 15.14,-1.83 17.77,9.48l0.95 -14.19c-56.24,-0.03 -48.35,-3.99 -48.35,14.19z"/>
   <path class="fil4" d="M1110.27 777.21l5.92 0 0 28.44c0,5.33 -0.89,1.84 -2.67,3.26 -3.84,3.07 -0.9,-3.17 -3.26,2.67l20.14 0c-2.36,-5.85 0.59,0.42 -3.26,-2.67 -1.77,-1.42 -2.67,2.09 -2.67,-3.26 0,-16.27 -3.29,-29.62 9.48,-29.62 8.04,0 5.93,18.71 5.93,27.25 0,9.23 -3.36,3.18 -7.11,8.29l20.14 0c-1.27,-3.14 2.44,-2.21 -4.74,-2.37 -1.53,-18.38 1.84,-39.1 -10.66,-39.1 -6.4,0 -9.18,4.53 -13.03,7.11l0 -7.11c-5.63,0.47 -12.93,2.28 -14.22,7.11z"/>
   <path class="fil4" d="M250.02 774.84c6.89,9.4 7.11,-12.01 7.11,28.44 0,3.47 -0.12,3.17 -2.03,5.08 -1.69,1.68 -0.32,0.01 -2.09,1.46 -2.6,2.14 -0.31,-1.94 -1.8,1.76l20.14 0c-2.52,-3.44 0.17,-2.24 -5.92,-2.37 -0.21,-9.38 -6.95,-33.18 9.48,-33.18 7.45,0 4.74,14.45 4.74,29.62 0,5.22 -2.58,1.35 -5.93,5.93l20.14 0c-1.65,-4.08 -5.31,-0.32 -5.99,-8.23 -0.92,-10.72 3.82,-33.25 -9.41,-33.25 -6,0 -10.26,4.46 -14.22,7.11l0 -7.11c-5.23,0.44 -8.29,3.36 -14.22,4.74z"/>
   <path class="fil4" d="M206.18 773.65c5.52,0.12 6.69,0.51 7.18,5.85 1.37,15 -5.11,33.25 10.59,33.25 5.58,0 8.49,-3.67 11.85,-5.92l0 5.92c7.64,-0.17 7.95,-3.03 14.22,-3.55 -0.64,-7.34 0.01,-1.65 -2.56,-2.81 -2.04,-0.92 -3.36,1.58 -3.36,-3.12l0 -31.99 -14.22 0c2.36,5.85 -0.59,-0.42 3.26,2.67 1.77,1.42 2.67,-2.09 2.67,3.26l0 23.7c0,5.87 -15.4,11.71 -15.4,-4.74l0 -24.88 -14.22 2.37z"/>
   <path class="fil4" d="M573.5 806.83c-7.73,0 -7.3,-16.48 8.29,-17.77l0 14.22c-2.57,1.72 -3.94,3.55 -8.29,3.55zm-11.85 -26.07c0,5.03 4.25,4.16 7.11,3.55 3.78,-7.87 -2.5,-12.82 11.85,-9.48 1.05,4.52 1.19,4.71 1.19,10.66 -28.74,6.7 -24.16,27.25 -11.85,27.25 5.58,0 8.49,-3.67 11.85,-5.92 0.65,1.34 2.7,11.15 12.12,2.64 2.37,-2.14 2.5,-2.84 3.28,-6.19 -6.91,1.84 -7.28,11.97 -7.08,-15.43 0.1,-13.31 -2.14,-17.74 -14.25,-17.74 -6.86,0 -14.22,4.36 -14.22,10.66z"/>
   <path class="fil4" d="M1477.59 789.06l0 14.22c-17.96,12.03 -18.68,-12.67 0,-14.22zm-20.14 -8.29c0,5.03 4.25,4.16 7.11,3.55 3.78,-7.87 -2.5,-12.82 11.85,-9.48 1.05,4.52 1.18,4.71 1.18,10.66 -4.21,0.35 -21.33,5.64 -21.33,17.77 0,5.73 3.75,9.48 9.48,9.48 5.58,0 8.49,-3.67 11.85,-5.92 2.47,10.6 13.46,5.52 14.22,-3.55 -6.33,4.24 -5.98,9.23 -5.88,-16.63 0.05,-12.62 -2.87,-16.54 -14.26,-16.54 -6.86,0 -14.22,4.36 -14.22,10.66z"/>
   <path class="fil4" d="M485.82 800.91c0,-8.39 8.35,-9.93 14.22,-13.04l0 15.4c-4.16,2.2 -14.22,6.67 -14.22,-2.37zm-5.92 -20.14c0,2.2 0.98,3.57 2.9,4.23 3.59,1.24 3.73,-2.15 3.74,-2.15 2.6,-5.89 -1.8,-9.18 7.59,-9.18 5.4,0 5.92,6.17 5.92,11.85 -5.63,0.47 -17.05,6.15 -19.72,9.93 -4.9,6.94 -1.62,17.32 7.87,17.32 4.63,0 8.74,-3.84 11.85,-5.92 0.97,11.71 13.58,4.13 14.22,-3.55 -3.44,2.3 -1.59,2.4 -5.92,3.55 -2.22,-26.62 2.88,-36.73 -14.22,-36.73 -7.45,0 -14.22,3.15 -14.22,10.66z"/>
   <path class="fil4" d="M1333.04 800.91c0,-8.39 8.35,-9.93 14.22,-13.04l0 15.4c-4.16,2.2 -14.22,6.67 -14.22,-2.37zm-5.93 -20.14c0,2.66 0.94,2.6 2.37,4.74 5.77,-1.34 4.62,-0.76 5.2,-5.65 0.64,-5.36 0.01,-6.2 6.65,-6.2 5.4,0 5.93,6.17 5.93,11.85 -5.63,0.47 -17.06,6.15 -19.72,9.93 -4.9,6.94 -1.62,17.32 7.87,17.32 4.63,0 8.74,-3.84 11.85,-5.92 0.97,11.71 13.58,4.13 14.22,-3.55 -3.44,2.3 -1.59,2.4 -5.93,3.55 -0.62,-7.46 -1.2,-13.3 -1.13,-22.56 0.03,-4.17 0.29,-7.59 -1.66,-10.19 -4.78,-6.38 -25.65,-6.02 -25.65,6.69z"/>
   <path class="fil4" d="M761.9 800.91c0,-8.39 8.35,-9.93 14.22,-13.04l0 15.4c-9.92,5.25 -7.82,3.58 -13.04,2.37 -0.76,-3.18 -1.18,-2.23 -1.18,-4.74zm-5.93 -20.14c0,3.01 4.19,7.6 6.63,2.07 2.6,-5.89 -1.8,-9.18 7.59,-9.18 5.07,0 5.93,6.52 5.93,11.85 -3.92,0.33 -10.64,3.36 -13.77,5.19 -18.17,10.67 -3.83,27.92 8.08,19.92 2.63,-1.77 2.35,-2.02 5.69,-3.79 0.97,11.71 13.58,4.13 14.22,-3.55 -3.44,2.3 -1.59,2.4 -5.93,3.55 -4.67,-20.04 6.41,-36.73 -14.22,-36.73 -7.45,0 -14.22,3.15 -14.22,10.66z"/>
   <path class="fil4" d="M304.52 799.72c0,-7.31 7.94,-8.53 14.22,-11.85l0 15.4c-4.49,2.38 -14.22,8.22 -14.22,-3.55zm-5.93 -23.7l0 8.29c14.52,3.38 -0.55,-10.66 14.22,-10.66 4.82,0 5.55,6.12 5.93,10.66 -8.36,4.42 -22.51,6.57 -22.51,18.96 0,4.13 5.35,9.48 9.48,9.48 6.12,0 8.59,-3.57 13.04,-5.92 0.97,11.71 13.58,4.13 14.22,-3.55 -3.34,2.24 -5.62,7.02 -7.04,0.1 -3.14,-15.25 8.9,-33.28 -15.47,-33.28 -5.58,0 -8.49,3.68 -11.85,5.93z"/>
   <path class="fil4" d="M1193.21 789.06c0,-22.62 21.33,-18.67 21.33,1.19 0,6.66 1.08,18.96 -8.29,18.96 -10.28,0 -13.03,-14.16 -13.03,-20.14zm-8.29 2.37c0,29.15 37.87,28.06 38.69,-0.13 0.8,-27.72 -38.69,-27.93 -38.69,0.13z"/>
   <path class="fil4" d="M883.95 773.65c5.5,0 8.16,4.76 8.29,10.66l-17.77 0c1.18,-5.07 3.52,-10.66 9.48,-10.66zm0 39.1c10.18,0 16.84,-5.39 17.77,-16.59 -2.89,1.05 -0.87,-0.02 -2.66,2.07 -3.18,3.71 -11.33,14.62 -20.88,1.33 -2.22,-3.09 -3.6,-7.87 -3.71,-12.88l27.25 0c0,-22.68 -32.45,-23.12 -33.56,4.02 -0.48,11.69 5.64,22.04 15.79,22.04z"/>
   <path class="fil4" d="M1163.59 771.28l-7.11 0 0 3.55 7.11 0c0,29.6 3.15,34.13 -7.11,34.36l23.7 0c-10.89,0 -8.29,3.04 -8.29,-34.36l9.48 0 0 -3.55 -9.48 0c0,-12.33 -1.84,-17.77 5.92,-17.77 7.83,0 3.26,12.08 14.22,4.74 -3.26,-13.99 -28.44,-13.48 -28.44,13.03z"/>
   <path class="fil4" d="M1090.13 755.88l0 52.14c-5.55,2.66 -4.92,-1.05 -8.29,3.55l26.07 -2.37c-4.78,0 -8.29,-0.08 -8.29,-4.74l0 -45.03c0,-4.66 3.51,-4.74 8.29,-4.74l-26.07 -2.37c2.35,3.2 3.64,2.47 8.29,3.55z"/>
   <path class="fil4" d="M658.81 780.76c0,17.63 20.14,11.38 20.14,23.7 0,5.67 -7.07,6.25 -11.22,4.22 -6.16,-3.01 -4.82,-8.32 -8.93,-11.33l0 15.4c6.22,-1.45 27.25,4.47 27.25,-11.85 0,-12.68 -19.1,-12.47 -21.81,-20.95 -2.47,-7.71 14.61,-11.06 15.89,4.37l2.37 -14.22c-8.13,1.89 -23.7,-3.72 -23.7,10.66z"/>
   <path class="fil4" d="M600.75 780.76c0,16.45 16.7,11.83 19.43,20.95 1.9,6.35 -4.26,10.73 -11.29,6.55 -6.03,-3.59 -4.07,-7.92 -8.14,-10.9l0 14.22c0.3,0.14 27.25,6.31 27.25,-10.66 0,-8.48 -9.58,-11.84 -14.26,-14.18 -21,-10.53 6.66,-22.43 8.33,-2.41l2.37 -14.22c-8.1,1.89 -23.7,-3.97 -23.7,10.66z"/>
   <path class="fil4" d="M1361.47 772.47l5.92 2.37c0,12.2 -2.94,37.92 8.29,37.92 6.32,0 8.4,-5.21 10.66,-9.48 -6.56,1.75 -0.99,3.37 -9.48,3.55 -2.32,-9.94 -1.18,-21.64 -1.18,-31.99l9.48 0 0 -3.55 -9.48 0 0 -13.03c-4.32,1.56 -1.55,0.76 -6.1,8.12 -2.17,3.51 -3.62,5.06 -8.12,6.1z"/>
   <path class="fil4" d="M632.75 774.84l5.92 2.37c0,45.78 0.63,25.42 -5.92,34.36l20.14 0c-1.32,-3.26 0.37,-0.73 -2.43,-2.31 -0.29,-0.16 -2.82,-0.92 -3.49,-1.25l0 -37.92c-6.95,0.58 -8.55,3.42 -14.22,4.74z"/>
   <path class="fil4" d="M73.46 774.84l5.93 2.37c0,45.78 0.63,25.42 -5.93,34.36l20.14 0c-1.4,-3.46 -1.1,-1.24 -5.93,-3.55l0 -37.92c-6.95,0.58 -8.54,3.42 -14.22,4.74z"/>
   <path class="fil4" d="M1387.54 774.84c6.49,8.85 7.11,-11.01 7.11,28.44 0,7.25 -4.4,4.52 -5.92,8.29l18.96 0c-1.27,-3.14 2.44,-2.21 -4.74,-2.37l-1.19 -39.1c-5.41,0.45 -9.11,3.55 -14.22,4.74z"/>
   <path class="fil4" d="M992.96 774.84c6.49,8.85 7.11,-11.01 7.11,28.44 0,3.47 -0.12,3.17 -2.03,5.08 -1.69,1.68 -0.32,0.01 -2.09,1.46 -2.6,2.14 -0.31,-1.94 -1.8,1.76l18.96 0c-1.27,-3.14 2.44,-2.21 -4.74,-2.37l-1.19 -39.1c-5.41,0.45 -9.11,3.55 -14.22,4.74z"/>
   <path class="fil4" d="M79.39 751.14c0,6.24 -0.52,7.11 4.74,7.11 8.02,0 4.97,-12.93 -4.74,-7.11z"/>
   <path class="fil4" d="M998.89 754.7c0,3.36 4.59,3.55 8.29,3.55 0.37,-1.39 1.19,-3.23 1.19,-3.55 0,-7.37 -9.48,-7.03 -9.48,0z"/>
   <path class="fil4" d="M1393.47 754.7c0,3.36 4.59,3.55 8.29,3.55 0.37,-1.39 1.19,-3.23 1.19,-3.55 0,-7.37 -9.48,-7.03 -9.48,0z"/>
   <path class="fil4" d="M638.67 751.14c0,7.52 -0.41,7.11 7.11,7.11l2.44 -4.71c-3.29,-4.85 -4.68,-5.32 -9.54,-2.4z"/>
  </g>
 </g>
</svg>
